<?xml version="1.0" encoding="UTF-8" standalone="no"?>
<svg
   viewBox="0 0 22 22"
   width="352"
   height="352"
   version="1.1"
   id="svg1"
   xmlns="http://www.w3.org/2000/svg"
   xmlns:svg="http://www.w3.org/2000/svg">
  <defs
     id="defs1" />
  <path
     d="M 20,0 H 2 C 0.895,0 0,0.895 0,2 v 18 c 0,1.105 0.895,2 2,2 H 12 V 13 H 9 v -3 h 3 V 8.389 C 12,5.339 13.486,4 16.021,4 c 1.214,0 1.856,0.09 2.16,0.131 V 7 H 16.452 C 15.376,7 15,7.568 15,8.718 V 10 h 3.154 l -0.428,3 H 15 v 9 h 5 c 1.105,0 2,-0.895 2,-2 V 2 C 22,0.895 21.104,0 20,0 Z"
     id="path1" />
</svg>
